<?xml version="1.0" encoding="UTF-8" standalone="no"?>
<!DOCTYPE svg PUBLIC "-//W3C//DTD SVG 1.1//EN"
 "http://www.w3.org/Graphics/SVG/1.1/DTD/svg11.dtd">
<!-- Generated by graphviz version 2.40.1 (20161225.0304)
 -->
<!-- Title: G Pages: 1 -->
<svg width="348pt" height="347pt"
 viewBox="0.00 0.00 347.82 347.16" xmlns="http://www.w3.org/2000/svg" xmlns:xlink="http://www.w3.org/1999/xlink">
<g id="graph0" class="graph" transform="scale(1 1) rotate(0) translate(4 343.1609)">
<title>G</title>
<polygon fill="#ffffff" stroke="transparent" points="-4,4 -4,-343.1609 343.8234,-343.1609 343.8234,4 -4,4"/>
<!-- 下单 -->
<g id="node1" class="node">
<title>下单</title>
<ellipse fill="none" stroke="#000000" cx="129.9117" cy="-319.6448" rx="31.2258" ry="19.5322"/>
<text text-anchor="middle" x="129.9117" y="-318.2447" font-family="Times,serif" font-size="14.00" fill="#000000">下单</text>
</g>
<!-- 定序 -->
<g id="node2" class="node">
<title>定序</title>
<ellipse fill="none" stroke="#000000" cx="129.9117" cy="-244.6126" rx="31.2258" ry="19.5322"/>
<text text-anchor="middle" x="129.9117" y="-243.2126" font-family="Times,serif" font-size="14.00" fill="#000000">定序</text>
</g>
<!-- 下单&#45;&gt;定序 -->
<g id="edge1" class="edge">
<title>下单&#45;&gt;定序</title>
<path fill="none" stroke="#000000" d="M129.9117,-299.931C129.9117,-292.0904 129.9117,-282.8993 129.9117,-274.2856"/>
<polygon fill="#000000" stroke="#000000" points="133.4118,-274.1947 129.9117,-264.1948 126.4118,-274.1948 133.4118,-274.1947"/>
</g>
<!-- 订单序列 -->
<g id="node3" class="node">
<title>订单序列</title>
<ellipse fill="none" stroke="#000000" cx="50.9117" cy="-169.5804" rx="50.8235" ry="19.5322"/>
<text text-anchor="middle" x="50.9117" y="-168.1804" font-family="Times,serif" font-size="14.00" fill="#000000">订单序列</text>
</g>
<!-- 定序&#45;&gt;订单序列 -->
<g id="edge2" class="edge">
<title>定序&#45;&gt;订单序列</title>
<path fill="none" stroke="#000000" d="M112.379,-227.9605C102.0873,-218.1857 88.8782,-205.64 77.3443,-194.6854"/>
<polygon fill="#000000" stroke="#000000" points="79.7155,-192.1105 70.0543,-187.7616 74.8948,-197.186 79.7155,-192.1105"/>
</g>
<!-- 交易流水 -->
<g id="node6" class="node">
<title>交易流水</title>
<ellipse fill="none" stroke="#000000" cx="288.9117" cy="-169.5804" rx="50.8235" ry="19.5322"/>
<text text-anchor="middle" x="288.9117" y="-168.1804" font-family="Times,serif" font-size="14.00" fill="#000000">交易流水</text>
</g>
<!-- 定序&#45;&gt;交易流水 -->
<g id="edge6" class="edge">
<title>定序&#45;&gt;交易流水</title>
<path fill="none" stroke="#000000" d="M155.1057,-232.7235C179.9162,-221.0154 218.2438,-202.9286 247.5301,-189.1084"/>
<polygon fill="#000000" stroke="#000000" points="249.1424,-192.2178 256.6923,-184.7848 246.155,-185.8873 249.1424,-192.2178"/>
</g>
<!-- 撮合 -->
<g id="node4" class="node">
<title>撮合</title>
<ellipse fill="none" stroke="#000000" cx="129.9117" cy="-94.5483" rx="31.2258" ry="19.5322"/>
<text text-anchor="middle" x="129.9117" y="-93.1482" font-family="Times,serif" font-size="14.00" fill="#000000">撮合</text>
</g>
<!-- 订单序列&#45;&gt;撮合 -->
<g id="edge3" class="edge">
<title>订单序列&#45;&gt;撮合</title>
<path fill="none" stroke="#000000" d="M70.0354,-151.4172C80.5725,-141.4094 93.7736,-128.8713 105.0972,-118.1164"/>
<polygon fill="#000000" stroke="#000000" points="107.7404,-120.433 112.5809,-111.0086 102.9197,-115.3575 107.7404,-120.433"/>
</g>
<!-- 撮合&#45;&gt;定序 -->
<g id="edge5" class="edge">
<title>撮合&#45;&gt;定序</title>
<path fill="none" stroke="#000000" d="M129.9117,-114.1714C129.9117,-139.7879 129.9117,-184.8686 129.9117,-214.741"/>
<polygon fill="#000000" stroke="#000000" points="126.4118,-214.9943 129.9117,-224.9943 133.4118,-214.9943 126.4118,-214.9943"/>
</g>
<!-- 行情 -->
<g id="node5" class="node">
<title>行情</title>
<ellipse fill="none" stroke="#000000" cx="129.9117" cy="-19.5161" rx="31.2258" ry="19.5322"/>
<text text-anchor="middle" x="129.9117" y="-18.116" font-family="Times,serif" font-size="14.00" fill="#000000">行情</text>
</g>
<!-- 撮合&#45;&gt;行情 -->
<g id="edge4" class="edge">
<title>撮合&#45;&gt;行情</title>
<path fill="none" stroke="#000000" d="M129.9117,-74.8344C129.9117,-66.9938 129.9117,-57.8027 129.9117,-49.1891"/>
<polygon fill="#000000" stroke="#000000" points="133.4118,-49.0982 129.9117,-39.0982 126.4118,-49.0983 133.4118,-49.0982"/>
</g>
<!-- 清算 -->
<g id="node7" class="node">
<title>清算</title>
<ellipse fill="none" stroke="#000000" cx="288.9117" cy="-94.5483" rx="31.2258" ry="19.5322"/>
<text text-anchor="middle" x="288.9117" y="-93.1482" font-family="Times,serif" font-size="14.00" fill="#000000">清算</text>
</g>
<!-- 交易流水&#45;&gt;清算 -->
<g id="edge7" class="edge">
<title>交易流水&#45;&gt;清算</title>
<path fill="none" stroke="#000000" d="M288.9117,-149.8666C288.9117,-142.026 288.9117,-132.8349 288.9117,-124.2212"/>
<polygon fill="#000000" stroke="#000000" points="292.4118,-124.1304 288.9117,-114.1304 285.4118,-124.1305 292.4118,-124.1304"/>
</g>
<!-- 状态 -->
<g id="node8" class="node">
<title>状态</title>
<ellipse fill="none" stroke="#000000" cx="188.9117" cy="-169.5804" rx="31.2258" ry="19.5322"/>
<text text-anchor="middle" x="188.9117" y="-168.1804" font-family="Times,serif" font-size="14.00" fill="#000000">状态</text>
</g>
<!-- 状态&#45;&gt;撮合 -->
<g id="edge8" class="edge">
<title>状态&#45;&gt;撮合</title>
<path fill="none" stroke="#000000" d="M174.9295,-151.7989C167.5083,-142.3611 158.2555,-130.594 150.0719,-120.1867"/>
<polygon fill="#000000" stroke="#000000" points="152.726,-117.8996 143.7935,-112.2022 147.2234,-122.2265 152.726,-117.8996"/>
</g>
</g>
</svg>
